<?xml version="1.0" encoding="UTF-8"?>
<svg id="Logo_SLR" xmlns="http://www.w3.org/2000/svg" version="1.1" viewBox="0 0 210.86 90.86">
  <!-- Generator: Adobe Illustrator 29.2.1, SVG Export Plug-In . SVG Version: 2.1.0 Build 116)  -->
  <defs>
    <style>
      .st0 {
        fill: #1d1d1b;
      }

      .st1, .st2 {
        fill: #004528;
      }

      .st2 {
        fill-rule: evenodd;
      }
    </style>
  </defs>
  <path class="st2" d="M206.32,60.31H22.54c-11.11,0-15.41-3.31-15.41-11.82v-27.74c0-5.69,3.83-7.89,10.18-7.89l32.21-.04v-7.07l-28.81.04c-9.29,0-15.76,4.26-15.76,12.29v32.68c0,8.79,7.37,12.81,17.04,12.81h184.33s0-3.25,0-3.25Z"/>
  <path class="st2" d="M206.32,56.51H18.69c-2.87,0-7.74-2.34-7.74-6.81v-28.35c-.01-2.86,2.74-4.5,6.62-4.5h31.97s0-.88,0-.88H17.03c-4.52,0-6.78,2.28-6.78,5.43v28.56c0,3.59,3.2,7.24,9.33,7.24l186.74.02v-.71Z"/>
  <g>
    <path class="st0" d="M50.37,78.29l1.73-.16-.02.46c0,.51.12.97.35,1.4.23.42.62.75,1.16.98.54.23,1.18.35,1.92.35,1.05,0,1.86-.23,2.41-.69s.83-.99.83-1.58c0-.41-.15-.79-.44-1.13-.3-.34-1.12-.79-2.45-1.37-1.04-.45-1.74-.79-2.12-1.03-.59-.39-1.03-.81-1.31-1.27s-.42-.98-.42-1.57c0-.68.19-1.29.56-1.83.37-.55.92-.96,1.63-1.25.72-.29,1.52-.43,2.42-.43,1.07,0,1.98.18,2.71.54.74.36,1.27.84,1.6,1.44s.5,1.17.5,1.72c0,.05,0,.14,0,.27l-1.7.13c0-.37-.03-.66-.1-.87-.12-.36-.31-.67-.56-.93s-.6-.45-1.04-.61c-.44-.15-.93-.23-1.48-.23-.96,0-1.7.22-2.24.65-.41.33-.61.77-.61,1.31,0,.32.08.61.25.87.17.25.47.51.91.75.31.17,1.05.52,2.22,1.03.95.42,1.6.75,1.96.99.48.32.85.7,1.11,1.15.26.45.39.97.39,1.54,0,.71-.22,1.37-.65,1.97-.43.6-1.03,1.07-1.8,1.4-.77.33-1.64.49-2.63.49-1.49,0-2.71-.33-3.65-.98-.94-.65-1.42-1.82-1.42-3.51Z"/>
    <path class="st0" d="M69.95,79.07l1.63.17c-.41,1.19-.99,2.08-1.74,2.66-.75.58-1.61.87-2.57.87-1.04,0-1.88-.34-2.52-1.01-.64-.67-.97-1.61-.97-2.81,0-1.04.21-2.07.62-3.07.41-1.01,1-1.77,1.78-2.3.77-.52,1.65-.79,2.64-.79s1.84.29,2.44.87c.6.58.9,1.34.9,2.3l-1.6.11c0-.61-.18-1.08-.53-1.42-.34-.34-.8-.51-1.36-.51-.65,0-1.22.21-1.7.62-.48.41-.85,1.04-1.13,1.88-.27.84-.41,1.65-.41,2.43s.18,1.43.54,1.83c.36.41.8.61,1.33.61s1.03-.2,1.51-.6c.48-.4.86-1.01,1.14-1.83Z"/>
    <path class="st0" d="M73.96,82.55l2.75-13.17h1.63l-1.05,5.06c.61-.59,1.17-1.01,1.69-1.26.52-.25,1.06-.38,1.61-.38.79,0,1.4.21,1.84.62s.66.97.66,1.65c0,.34-.1.95-.29,1.85l-1.18,5.63h-1.63l1.21-5.78c.17-.84.26-1.37.26-1.58,0-.31-.11-.57-.32-.76-.22-.2-.53-.3-.94-.3-.59,0-1.15.15-1.68.46-.53.31-.95.73-1.25,1.27-.3.54-.58,1.4-.83,2.59l-.85,4.1h-1.63Z"/>
    <path class="st0" d="M85.47,82.55l2.75-13.17h1.63l-2.75,13.17h-1.63Z"/>
    <path class="st0" d="M98.09,79.3l1.58.16c-.23.78-.75,1.53-1.57,2.24s-1.79,1.06-2.92,1.06c-.71,0-1.36-.16-1.94-.49-.59-.33-1.04-.8-1.35-1.42-.31-.62-.46-1.33-.46-2.13,0-1.04.24-2.05.72-3.03.48-.98,1.11-1.71,1.87-2.18s1.6-.71,2.49-.71c1.14,0,2.05.35,2.73,1.06.68.71,1.02,1.67,1.02,2.89,0,.47-.04.95-.13,1.44h-7.03c-.02.19-.04.35-.04.5,0,.89.21,1.57.62,2.04.41.47.91.71,1.5.71.56,0,1.1-.18,1.64-.55.54-.37.96-.89,1.26-1.58ZM93.36,76.94h5.35c0-.17,0-.29,0-.36,0-.82-.2-1.44-.61-1.87-.41-.43-.93-.65-1.57-.65-.69,0-1.33.24-1.9.72s-1,1.2-1.28,2.17Z"/>
    <path class="st0" d="M106.51,81.23l-.27,1.33c-.39.1-.77.15-1.13.15-.65,0-1.16-.16-1.55-.48-.29-.24-.43-.57-.43-.98,0-.21.08-.69.23-1.45l1.16-5.54h-1.28l.26-1.26h1.28l.49-2.35,1.86-1.12-.73,3.47h1.6l-.27,1.26h-1.59l-1.11,5.27c-.14.67-.21,1.07-.21,1.2,0,.19.06.34.17.44s.29.15.54.15c.36,0,.68-.04.96-.11Z"/>
    <path class="st0" d="M113.03,81.23l-.27,1.33c-.39.1-.77.15-1.13.15-.65,0-1.16-.16-1.55-.48-.29-.24-.43-.57-.43-.98,0-.21.08-.69.23-1.45l1.16-5.54h-1.28l.26-1.26h1.28l.49-2.35,1.86-1.12-.73,3.47h1.6l-.27,1.26h-1.59l-1.11,5.27c-.14.67-.21,1.07-.21,1.2,0,.19.06.34.17.44s.29.15.54.15c.36,0,.68-.04.96-.11Z"/>
    <path class="st0" d="M122.74,79.3l1.58.16c-.23.78-.75,1.53-1.57,2.24s-1.79,1.06-2.92,1.06c-.71,0-1.36-.16-1.94-.49-.59-.33-1.04-.8-1.35-1.42-.31-.62-.46-1.33-.46-2.13,0-1.04.24-2.05.72-3.03.48-.98,1.11-1.71,1.87-2.18s1.6-.71,2.49-.71c1.14,0,2.05.35,2.73,1.06.68.71,1.02,1.67,1.02,2.89,0,.47-.04.95-.13,1.44h-7.03c-.02.19-.04.35-.04.5,0,.89.21,1.57.62,2.04.41.47.91.71,1.5.71.56,0,1.1-.18,1.64-.55.54-.37.96-.89,1.26-1.58ZM118.02,76.94h5.35c0-.17,0-.29,0-.36,0-.82-.2-1.44-.61-1.87-.41-.43-.93-.65-1.57-.65-.69,0-1.33.24-1.9.72s-1,1.2-1.28,2.17Z"/>
    <path class="st0" d="M127.37,82.55l2-9.54h1.44l-.4,1.95c.49-.74.97-1.28,1.44-1.64.47-.35.95-.53,1.44-.53.32,0,.72.12,1.19.35l-.66,1.51c-.28-.2-.59-.31-.93-.31-.57,0-1.15.32-1.75.95-.6.64-1.07,1.78-1.41,3.42l-.81,3.83h-1.55Z"/>
    <path class="st0" d="M140.59,82.55l2.75-13.17h1.76l-2.44,11.68h6.84l-.31,1.49h-8.6Z"/>
    <path class="st0" d="M158.62,80.82c-1.14,1.29-2.32,1.94-3.51,1.94-.74,0-1.33-.21-1.78-.63-.45-.42-.68-.94-.68-1.55,0-.4.1-1.09.31-2.07l1.15-5.51h1.63l-1.28,6.1c-.11.51-.16.9-.16,1.19,0,.36.11.64.33.84.22.2.54.3.97.3.45,0,.9-.11,1.33-.33.43-.22.81-.52,1.12-.9s.57-.82.77-1.34c.13-.33.28-.91.46-1.73l.86-4.12h1.63l-2,9.54h-1.5l.36-1.73Z"/>
    <path class="st0" d="M170.17,81.16c-.93,1.07-1.9,1.6-2.91,1.6-.9,0-1.66-.33-2.26-1-.6-.67-.9-1.64-.9-2.91,0-1.16.24-2.22.72-3.19.48-.96,1.07-1.68,1.79-2.16.72-.48,1.43-.72,2.15-.72,1.19,0,2.08.57,2.69,1.72l1.08-5.13h1.62l-2.75,13.17h-1.5l.29-1.38ZM165.71,78.55c0,.66.07,1.19.2,1.57s.36.7.67.96c.32.25.7.38,1.14.38.74,0,1.4-.38,2-1.15.8-1.02,1.2-2.28,1.2-3.77,0-.76-.2-1.35-.59-1.77-.4-.43-.89-.64-1.49-.64-.39,0-.74.09-1.07.26-.32.17-.64.47-.95.89-.31.42-.58.94-.79,1.59-.22.64-.32,1.2-.32,1.69Z"/>
    <path class="st0" d="M177.18,82.55l-1-9.54h1.56l.43,4.29.17,2.41c.01.18.03.54.05,1.09.18-.61.33-1.08.46-1.41.13-.33.33-.79.6-1.4l2.27-4.98h1.77l.31,4.77c.05.73.08,1.69.09,2.9.3-.8.79-1.92,1.47-3.34l2.05-4.33h1.63l-4.66,9.54h-1.69l-.36-5.6c-.02-.35-.04-1.02-.05-2.03-.25.64-.54,1.33-.87,2.07l-2.53,5.55h-1.71Z"/>
    <path class="st0" d="M189.99,82.55l1.99-9.54h1.63l-1.99,9.54h-1.63ZM192.37,71.22l.39-1.84h1.62l-.39,1.84h-1.62Z"/>
    <path class="st0" d="M195.45,83.41l1.64.15c-.01.37.03.65.13.84.1.19.26.33.49.43.29.13.67.2,1.14.2.98,0,1.69-.25,2.12-.76.28-.34.54-1.08.78-2.23l.16-.77c-.84.86-1.74,1.29-2.7,1.29s-1.77-.35-2.42-1.07c-.65-.71-.97-1.71-.97-3.01,0-1.07.26-2.06.77-2.96.51-.9,1.12-1.58,1.83-2.03.71-.46,1.43-.69,2.18-.69,1.25,0,2.22.59,2.89,1.78l.32-1.56h1.49l-1.92,9.21c-.21,1.01-.49,1.8-.83,2.37-.34.57-.82,1-1.42,1.32s-1.31.47-2.11.47-1.43-.1-1.98-.3c-.55-.2-.97-.49-1.24-.87-.27-.38-.41-.82-.41-1.31,0-.15.02-.31.04-.49ZM197.48,78.32c0,.65.06,1.14.19,1.47.18.46.44.81.77,1.06.33.24.7.36,1.11.36.53,0,1.06-.19,1.59-.56s.95-.95,1.28-1.74.49-1.53.49-2.25c0-.78-.22-1.41-.65-1.87-.43-.46-.97-.7-1.61-.7-.4,0-.78.11-1.15.32s-.72.54-1.04.97c-.32.43-.56.95-.73,1.56-.17.61-.25,1.06-.25,1.38Z"/>
  </g>
  <g>
    <path class="st0" d="M123.21,31.3h-5.26l5.34-25.51h11.33c1.95,0,3.47.2,4.55.6,1.08.4,1.96,1.13,2.63,2.2.67,1.07,1,2.36,1,3.88,0,2.17-.65,3.96-1.95,5.37-1.3,1.41-3.27,2.28-5.9,2.62.67.6,1.31,1.4,1.9,2.38,1.17,2,2.48,4.81,3.91,8.46h-5.64c-.45-1.44-1.34-3.68-2.66-6.73-.72-1.65-1.48-2.75-2.3-3.32-.5-.34-1.37-.5-2.61-.5h-2.14l-2.21,10.56ZM126.22,16.91h2.78c2.82,0,4.69-.17,5.61-.5.92-.34,1.64-.86,2.17-1.58s.78-1.47.78-2.26c0-.93-.38-1.62-1.13-2.09-.46-.28-1.47-.42-3.01-.42h-5.78l-1.43,6.86Z"/>
    <path class="st0" d="M152.38,18.06l-4.87-.42c.56-1.65,1.53-2.93,2.91-3.86,1.39-.93,3.22-1.39,5.51-1.39s4.13.48,5.27,1.44,1.71,2.13,1.71,3.51c0,.56-.05,1.15-.15,1.77s-.44,2.27-1.04,4.94c-.49,2.2-.73,3.75-.73,4.63,0,.79.14,1.66.42,2.63h-4.85c-.2-.67-.32-1.37-.37-2.09-.73.81-1.57,1.44-2.52,1.87-.95.43-1.91.65-2.87.65-1.53,0-2.8-.5-3.79-1.5-1-1-1.5-2.29-1.5-3.87,0-1.76.55-3.17,1.64-4.23,1.1-1.06,3.05-1.69,5.87-1.91,2.38-.2,3.97-.44,4.77-.71.21-.7.31-1.25.31-1.67,0-.53-.21-.98-.64-1.34-.43-.36-1.07-.54-1.91-.54-.89,0-1.6.18-2.11.55s-.87.88-1.05,1.56ZM157.13,22.68c-.3.08-.7.16-1.2.23-2.5.3-4.14.74-4.91,1.32-.54.42-.82.98-.82,1.69,0,.58.21,1.07.63,1.47s.97.6,1.65.6c.75,0,1.46-.18,2.13-.55.67-.37,1.17-.83,1.5-1.41.33-.57.62-1.47.88-2.69l.14-.66Z"/>
    <path class="st0" d="M178.95,24.34l4.85.78c-.8,2.16-1.98,3.8-3.55,4.92-1.57,1.13-3.38,1.69-5.45,1.69-2.36,0-4.22-.7-5.6-2.11-1.38-1.4-2.07-3.33-2.07-5.79,0-2.01.42-3.9,1.25-5.69.84-1.79,2.09-3.19,3.78-4.22,1.68-1.03,3.53-1.54,5.53-1.54,2.18,0,3.92.57,5.22,1.71,1.3,1.14,2.03,2.63,2.19,4.49l-4.75.5c-.12-1.03-.43-1.79-.95-2.28-.52-.49-1.19-.73-2.03-.73-.96,0-1.86.36-2.7,1.08-.84.72-1.48,1.8-1.92,3.23s-.67,2.78-.67,4.03c0,1.09.27,1.93.8,2.52.53.59,1.2.89,2,.89s1.57-.29,2.31-.87,1.32-1.45,1.74-2.61Z"/>
    <path class="st0" d="M187.41,31.3l5.34-25.51h4.99l-2.78,13.28,6.51-6.25h6.49l-7.43,6.72,3.95,11.76h-4.99l-2.54-8.54-3.38,2.99-1.17,5.55h-4.99Z"/>
  </g>
  <path class="st1" d="M115.06,45.33c-6.88,0-24.52.09-24.57,0l1.76-9.47,5.69-30.17,9.67.04-6.04,31.35s12.25-.04,15.28-.04l-1.8,8.29Z"/>
  <path class="st1" d="M88.48,16.81l-11.34.62c-.26-3.41-2.16-5.12-5.7-5.12-1.45,0-2.56.31-3.33.92-.78.62-1.17,1.35-1.17,2.21,0,.62.32,1.21.94,1.78.62.56,2.1,1.28,4.44,2.16,2.97,1.14,5.37,2.22,7.22,3.23,1.85,1.02,3.37,2.34,4.55,3.96,1.18,1.63,1.77,3.64,1.77,6.07,0,2.28-.64,4.41-1.92,6.38-1.27,1.96-3.11,3.59-5.51,4.87-2.4,1.27-5.81,1.91-10.24,1.91-6.22,0-10.64-1.2-13.24-3.58-2.6-2.39-3.91-5.46-3.91-9.21v-.91l11.4-.78c0,2.45.54,4.18,1.63,5.18,1.08,1.02,2.57,1.52,4.48,1.52s3.4-.42,4.4-1.26c1.01-.84,1.52-1.79,1.52-2.86,0-.8-.32-1.54-.97-2.23-.64-.68-2.22-1.47-4.73-2.37-5.76-2.07-9.41-3.98-10.93-5.73-1.53-1.75-2.29-3.85-2.29-6.32,0-2.25.63-4.29,1.89-6.16,1.26-1.85,3.09-3.29,5.49-4.32,2.39-1.02,5.27-1.53,8.62-1.53,10.61,0,16.27,3.85,16.94,11.55"/>
</svg>